<mxfile host="app.diagrams.net" modified="2024-01-02T07:34:16.248Z" agent="Mozilla/5.0 (Windows NT 10.0; Win64; x64) AppleWebKit/537.36 (KHTML, like Gecko) Chrome/120.0.0.0 Safari/537.36" etag="BUFuGrLg2zASX4iMjtk2" version="22.1.16" type="device">
  <diagram id="jbVRNizJcDCQ8yqokmnY" name="第 1 页">
    <mxGraphModel dx="1434" dy="738" grid="1" gridSize="10" guides="1" tooltips="1" connect="1" arrows="1" fold="1" page="1" pageScale="1" pageWidth="2336" pageHeight="1654" math="0" shadow="0">
      <root>
        <mxCell id="0" />
        <mxCell id="1" parent="0" />
        <mxCell id="_HgupfXg40LZJNDoUt4P-61" value="" style="rounded=0;whiteSpace=wrap;html=1;" vertex="1" parent="1">
          <mxGeometry x="150" y="330" width="1030" height="430" as="geometry" />
        </mxCell>
        <mxCell id="_HgupfXg40LZJNDoUt4P-3" value="&lt;font style=&quot;font-size: 26px;&quot;&gt;售票管理系統&lt;/font&gt;" style="rounded=0;whiteSpace=wrap;html=1;" vertex="1" parent="1">
          <mxGeometry x="500" y="520" width="190" height="110" as="geometry" />
        </mxCell>
        <mxCell id="_HgupfXg40LZJNDoUt4P-49" value="&lt;font style=&quot;font-size: 22px;&quot;&gt;售票人員&lt;/font&gt;" style="ellipse;whiteSpace=wrap;html=1;aspect=fixed;" vertex="1" parent="1">
          <mxGeometry x="220" y="430" width="110" height="110" as="geometry" />
        </mxCell>
        <mxCell id="_HgupfXg40LZJNDoUt4P-50" value="&lt;font style=&quot;font-size: 22px;&quot;&gt;旅客&lt;/font&gt;" style="ellipse;whiteSpace=wrap;html=1;aspect=fixed;" vertex="1" parent="1">
          <mxGeometry x="220" y="610" width="110" height="110" as="geometry" />
        </mxCell>
        <mxCell id="_HgupfXg40LZJNDoUt4P-51" value="&lt;font style=&quot;font-size: 26px;&quot;&gt;班次表&lt;br&gt;&lt;/font&gt;" style="rounded=0;whiteSpace=wrap;html=1;" vertex="1" parent="1">
          <mxGeometry x="850" y="380" width="280" height="80" as="geometry" />
        </mxCell>
        <mxCell id="_HgupfXg40LZJNDoUt4P-52" value="&lt;font style=&quot;font-size: 26px;&quot;&gt;旅客登記表&lt;br&gt;&lt;/font&gt;" style="rounded=0;whiteSpace=wrap;html=1;" vertex="1" parent="1">
          <mxGeometry x="870" y="625" width="280" height="80" as="geometry" />
        </mxCell>
        <mxCell id="_HgupfXg40LZJNDoUt4P-54" value="" style="endArrow=classic;html=1;rounded=0;exitX=1;exitY=0.5;exitDx=0;exitDy=0;entryX=0;entryY=0.5;entryDx=0;entryDy=0;strokeWidth=3;" edge="1" parent="1" source="_HgupfXg40LZJNDoUt4P-3" target="_HgupfXg40LZJNDoUt4P-52">
          <mxGeometry width="50" height="50" relative="1" as="geometry">
            <mxPoint x="740" y="590" as="sourcePoint" />
            <mxPoint x="790" y="540" as="targetPoint" />
            <Array as="points">
              <mxPoint x="750" y="575" />
              <mxPoint x="750" y="665" />
            </Array>
          </mxGeometry>
        </mxCell>
        <mxCell id="_HgupfXg40LZJNDoUt4P-55" value="" style="endArrow=classic;html=1;rounded=0;exitX=1;exitY=0;exitDx=0;exitDy=0;entryX=0;entryY=0.5;entryDx=0;entryDy=0;strokeWidth=3;" edge="1" parent="1" source="_HgupfXg40LZJNDoUt4P-3" target="_HgupfXg40LZJNDoUt4P-51">
          <mxGeometry width="50" height="50" relative="1" as="geometry">
            <mxPoint x="700" y="440" as="sourcePoint" />
            <mxPoint x="750" y="390" as="targetPoint" />
            <Array as="points">
              <mxPoint x="690" y="420" />
            </Array>
          </mxGeometry>
        </mxCell>
        <mxCell id="_HgupfXg40LZJNDoUt4P-56" value="" style="endArrow=classic;html=1;rounded=0;exitX=1;exitY=0.5;exitDx=0;exitDy=0;entryX=0.537;entryY=-0.009;entryDx=0;entryDy=0;entryPerimeter=0;strokeWidth=3;" edge="1" parent="1" source="_HgupfXg40LZJNDoUt4P-49" target="_HgupfXg40LZJNDoUt4P-3">
          <mxGeometry width="50" height="50" relative="1" as="geometry">
            <mxPoint x="440" y="530" as="sourcePoint" />
            <mxPoint x="490" y="480" as="targetPoint" />
            <Array as="points">
              <mxPoint x="602" y="480" />
            </Array>
          </mxGeometry>
        </mxCell>
        <mxCell id="_HgupfXg40LZJNDoUt4P-58" value="" style="endArrow=classic;html=1;rounded=0;exitX=1;exitY=0.5;exitDx=0;exitDy=0;entryX=0.5;entryY=1;entryDx=0;entryDy=0;strokeWidth=3;" edge="1" parent="1" source="_HgupfXg40LZJNDoUt4P-50" target="_HgupfXg40LZJNDoUt4P-3">
          <mxGeometry width="50" height="50" relative="1" as="geometry">
            <mxPoint x="470" y="750" as="sourcePoint" />
            <mxPoint x="520" y="700" as="targetPoint" />
            <Array as="points">
              <mxPoint x="595" y="665" />
            </Array>
          </mxGeometry>
        </mxCell>
        <mxCell id="_HgupfXg40LZJNDoUt4P-59" value="&lt;font style=&quot;font-size: 21px;&quot;&gt;查詢班次訊息&lt;/font&gt;" style="text;html=1;strokeColor=none;fillColor=none;align=center;verticalAlign=middle;whiteSpace=wrap;rounded=0;" vertex="1" parent="1">
          <mxGeometry x="330" y="620" width="140" height="30" as="geometry" />
        </mxCell>
        <mxCell id="_HgupfXg40LZJNDoUt4P-60" value="&lt;font style=&quot;font-size: 21px;&quot;&gt;旅客訊息&lt;/font&gt;" style="text;html=1;strokeColor=none;fillColor=none;align=center;verticalAlign=middle;whiteSpace=wrap;rounded=0;" vertex="1" parent="1">
          <mxGeometry x="360" y="450" width="140" height="30" as="geometry" />
        </mxCell>
      </root>
    </mxGraphModel>
  </diagram>
</mxfile>
